<svg xmlns="http://www.w3.org/2000/svg" version="1.1" xmlns:xlink="http://www.w3.org/1999/xlink" xmlns:svgjs="http://svgjs.dev/svgjs" width="1000" height="1012" viewBox="0 0 1000 1012"><g transform="matrix(1,0,0,1,0.883934426229473,0.40971659919023296)"><svg viewBox="0 0 244 247" data-background-color="#260050" preserveAspectRatio="xMidYMid meet" height="1012" width="1000" xmlns="http://www.w3.org/2000/svg" xmlns:xlink="http://www.w3.org/1999/xlink"><defs></defs><g id="tight-bounds" transform="matrix(1,0,0,1,-0.21567999999999188,-0.09999999999999432)"><svg viewBox="0 0 244.43135999999998 247.2" height="247.2" width="244.43135999999998"><g><svg></svg></g><g><svg viewBox="0 0 244.43135999999998 247.2" height="247.2" width="244.43135999999998"><g transform="matrix(1,0,0,1,0,78.79665717594655)"><svg viewBox="0 0 244.43135999999998 89.60668564810689" height="89.60668564810689" width="244.43135999999998"><g><svg viewBox="0 0 244.43135999999998 89.60668564810689" height="89.60668564810689" width="244.43135999999998"><g><svg viewBox="0 0 244.43136 89.6066856481069" height="89.60668564810689" width="244.43135999999998"><g><svg viewBox="0 0 244.43136 89.6066856481069" height="89.6066856481069" width="244.43136"><g><svg viewBox="0 0 244.43136 89.6066856481069" height="89.6066856481069" width="244.43136"><g><svg viewBox="0 0 244.43136 89.6066856481069" height="89.6066856481069" width="244.43136"><g transform="matrix(1,0,0,1,0,0)"><svg width="244.43136" viewBox="0.1 -34.4 112.24000000000001 41.15" height="89.6066856481069" data-palette-color="#83fcea"><path d="M9.65-34.4L9.65-4.8Q9.65-1.4 8.68 0.8 7.7 3 5.93 4.35 4.15 5.7 1.35 6.75L1.35 6.75 0.1 3.45Q2.15 2.45 3.18 1.43 4.2 0.4 4.6-1.07 5-2.55 5-5L5-5 5-34.4 9.65-34.4ZM14.2-34.4L36.55-34.4 36-30.6 27.55-30.6 27.55 0 22.9 0 22.9-30.6 14.2-30.6 14.2-34.4ZM48.15-34.4Q52.59-34.4 55.9-33.05 59.2-31.7 61.27-27.95 63.34-24.2 63.34-17.4L63.34-17.4Q63.34-7.7 59.22-3.85 55.09 0 48.8 0L48.8 0 41.05 0 41.05-34.4 48.15-34.4ZM48.84-30.75L45.7-30.75 45.7-3.6 49.09-3.6Q53.4-3.6 55.95-6.58 58.5-9.55 58.5-17.4L58.5-17.4Q58.5-22.9 57.17-25.85 55.84-28.8 53.77-29.78 51.7-30.75 48.84-30.75L48.84-30.75ZM88.34-13.95Q88.34-12.9 88.24-11.6L88.24-11.6 72.94-11.6Q73.14-7 74.79-4.98 76.44-2.95 79.29-2.95L79.29-2.95Q81.09-2.95 82.52-3.5 83.94-4.05 85.49-5.3L85.49-5.3 87.49-2.65Q83.79 0.65 79.09 0.65L79.09 0.65Q73.94 0.65 71.12-2.93 68.29-6.5 68.29-12.95L68.29-12.95Q68.29-19.4 70.99-23.18 73.69-26.95 78.49-26.95L78.49-26.95Q83.24-26.95 85.79-23.58 88.34-20.2 88.34-13.95L88.34-13.95ZM83.99-14.75L83.99-15.3Q83.99-23.55 78.54-23.55L78.54-23.55Q76.04-23.55 74.59-21.48 73.14-19.4 72.94-14.75L72.94-14.75 83.99-14.75ZM107.84-26.3L112.34-26.3 104.49 0 99.09 0 90.99-26.3 95.69-26.3 101.79-3.8 107.84-26.3Z" opacity="1" transform="matrix(1,0,0,1,0,0)" fill="#83fcea" class="undefined-text-0" data-fill-palette-color="primary" id="text-0"></path></svg></g></svg></g></svg></g></svg></g><g></g></svg></g></svg></g></svg></g><path d="M0 72.797L0 1 244.431 1 244.431 72.797 236.351 72.797 236.351 9.081 8.081 9.081 8.081 72.797 0 72.797M0 174.403L0 246.2 244.431 246.2 244.431 174.403 236.351 174.403 236.351 238.119 8.081 238.119 8.081 174.403 0 174.403" fill="#83fcea" stroke="transparent" data-fill-palette-color="primary"></path></svg></g></svg><rect width="244.43135999999998" height="247.2" fill="none" stroke="none" visibility="hidden"></rect></g></svg></g></svg>